<svg xmlns="http://www.w3.org/2000/svg" width="48" height="51" fill="none"><g filter="url(#a)"><path fill="#FFF1F1" fill-rule="evenodd" d="M12.4 26.61a6.44 6.44 0 0 1 6.44-6.43h10.84a6.44 6.44 0 0 1 6.43 6.43v5.42a6.44 6.44 0 0 1-6.43 6.44H18.84a6.44 6.44 0 0 1-6.44-6.44v-5.42Zm12.87 1.36a1.02 1.02 0 0 0-2.03 0v2.7a1.02 1.02 0 0 0 2.03 0v-2.7Z" clip-rule="evenodd"/><path stroke="#FFF1F1" stroke-width="2.03" d="M29.68 21.2v-2.72a5.42 5.42 0 1 0-10.84 0v2.71"/></g><defs><filter id="a" width="55.74" height="55.74" x="-3.61" y="-2.61" color-interpolation-filters="sRGB" filterUnits="userSpaceOnUse"><feFlood flood-opacity="0" result="BackgroundImageFix"/><feColorMatrix in="SourceAlpha" result="hardAlpha" values="0 0 0 0 0 0 0 0 0 0 0 0 0 0 0 0 0 0 127 0"/><feOffset/><feGaussianBlur stdDeviation="5.81"/><feComposite in2="hardAlpha" operator="out"/><feColorMatrix values="0 0 0 0 0.882353 0 0 0 0 0.164706 0 0 0 0 0.14902 0 0 0 0.35 0"/><feBlend in2="BackgroundImageFix" result="effect1_dropShadow_41_30693"/><feBlend in="SourceGraphic" in2="effect1_dropShadow_41_30693" result="shape"/></filter></defs></svg>