<svg xmlns="http://www.w3.org/2000/svg" width="34" height="43" fill="none"><path fill="#E8FAEF" d="M15.56 2c.8-.45 1.77-.45 2.56 0l10.92 6.31c.8.46 1.28 1.3 1.28 2.22v12.62c0 .91-.48 1.76-1.28 2.21l-10.92 6.31c-.8.46-1.77.46-2.56 0l-.55.95.55-.95-10.92-6.3a2.56 2.56 0 0 1-1.29-2.22V10.53c0-.91.5-1.76 1.29-2.22l10.92-6.3Z"/><path fill="url(#a)" d="M15.56 2c.8-.45 1.77-.45 2.56 0l10.92 6.31c.8.46 1.28 1.3 1.28 2.22v12.62c0 .91-.48 1.76-1.28 2.21l-10.92 6.31c-.8.46-1.77.46-2.56 0l-.55.95.55-.95-10.92-6.3a2.56 2.56 0 0 1-1.29-2.22V10.53c0-.91.5-1.76 1.29-2.22l10.92-6.3Z"/><path fill="url(#b)" d="M15.56 2c.8-.45 1.77-.45 2.56 0l10.92 6.31c.8.46 1.28 1.3 1.28 2.22v12.62c0 .91-.48 1.76-1.28 2.21l-10.92 6.31c-.8.46-1.77.46-2.56 0l-.55.95.55-.95-10.92-6.3a2.56 2.56 0 0 1-1.29-2.22V10.53c0-.91.5-1.76 1.29-2.22l10.92-6.3Z"/><path stroke="url(#c)" stroke-width="2.2" d="M15.56 2c.8-.45 1.77-.45 2.56 0l10.92 6.31c.8.46 1.28 1.3 1.28 2.22v12.62c0 .91-.48 1.76-1.28 2.21l-10.92 6.31c-.8.46-1.77.46-2.56 0l-.55.95.55-.95-10.92-6.3a2.56 2.56 0 0 1-1.29-2.22V10.53c0-.91.5-1.76 1.29-2.22l10.92-6.3Z"/><g filter="url(#d)" opacity=".3"><ellipse cx="16.47" cy="39.17" fill="#313131" rx="8.42" ry="1.83"/></g><path fill="#000" d="M23.96 12.38a1 1 0 0 0-1.43 0l-7.5 7.51-3.15-3.16a1.03 1.03 0 1 0-1.43 1.48l3.87 3.87a1 1 0 0 0 1.43 0l8.21-8.22a1 1 0 0 0 0-1.48Z"/><path fill="url(#e)" d="M23.96 12.38a1 1 0 0 0-1.43 0l-7.5 7.51-3.15-3.16a1.03 1.03 0 1 0-1.43 1.48l3.87 3.87a1 1 0 0 0 1.43 0l8.21-8.22a1 1 0 0 0 0-1.48Z"/><path fill="#43A978" d="M23.96 12.38a1 1 0 0 0-1.43 0l-7.5 7.51-3.15-3.16a1.03 1.03 0 1 0-1.43 1.48l3.87 3.87a1 1 0 0 0 1.43 0l8.21-8.22a1 1 0 0 0 0-1.48Z"/><defs><linearGradient id="a" x1="25.99" x2="11.12" y1="34.78" y2="23.31" gradientUnits="userSpaceOnUse"><stop stop-color="#84DFA8"/><stop offset="1" stop-color="#FFFCF4" stop-opacity="0"/></linearGradient><linearGradient id="b" x1="1.1" x2="23.3" y1="-9.15" y2="4.34" gradientUnits="userSpaceOnUse"><stop stop-color="#00C136"/><stop offset="1" stop-color="#fff" stop-opacity="0"/></linearGradient><linearGradient id="c" x1="-16.24" x2="47.24" y1="56.5" y2="49.73" gradientUnits="userSpaceOnUse"><stop stop-color="#00532B"/><stop offset=".55" stop-color="#45C185"/><stop offset="1" stop-color="#004323"/></linearGradient><linearGradient id="e" x1="3.32" x2="29.72" y1="29.35" y2="25.48" gradientUnits="userSpaceOnUse"><stop stop-color="#442C05"/><stop offset=".55" stop-color="#E3C67C"/><stop offset="1" stop-color="#5F4311"/></linearGradient><filter id="d" width="19.77" height="6.59" x="6.59" y="35.88" color-interpolation-filters="sRGB" filterUnits="userSpaceOnUse"><feFlood flood-opacity="0" result="BackgroundImageFix"/><feBlend in="SourceGraphic" in2="BackgroundImageFix" result="shape"/><feGaussianBlur result="effect1_foregroundBlur_41_30801" stdDeviation=".73"/></filter></defs></svg>